<svg xmlns="http://www.w3.org/2000/svg" aria-hidden="true" style="position:absolute;width:0;height:0;overflow:hidden">
  <defs>
  <!-- Logo icon -->
     <symbol id="logo" viewBox="0 0 32 32">
      <path d="m18.275 11.191.596.437c.044.03.08.068.107.112l.001.002a.352.352 0 0 1-.053.432l-3.523 3.791a.235.235 0 0 1-.306.035l.001.001-.136-.096a.239.239 0 0 0-.292 0h.001l-1.903 1.693c1.35-.16 2.69-.402 4.011-.724a18.76 18.76 0 0 0 6.035-2.727l-.063.041s.537 1.197.15 1.638c-1.615 1.882-9.129 3.538-11.672 3.139l-1.714 1.516-.128-.136 1.364-1.503a.82.82 0 0 1-.232-.136l.001.001a3.987 3.987 0 0 1-.234-.886l-.003-.023a32.896 32.896 0 0 0 1.637-.11l-.132.01 5.85-6.447a.47.47 0 0 1 .638-.061l-.001-.001zm-6.863 7.036a.29.29 0 0 0 .095.394l.001.001c.051.032.111.05.172.05h.003c.084 0 .16-.033.217-.086a.291.291 0 0 0 .089-.21v-.001a.295.295 0 0 0-.011-.079l.001.002-.003.003a.299.299 0 0 0-.111-.151l-.001-.001a.319.319 0 0 0-.183-.058h-.006a.32.32 0 0 0-.262.135l-.001.001zm3.93-12.393.724.948.351-.013-.758-1.008c.202-.067.378-.195.502-.366a.99.99 0 0 0 .16-.603V4.78a.942.942 0 0 0-.353-.736l-.002-.001a1.368 1.368 0 0 0-.924-.246h.006l-1.152.004.1 3.017h.32l-.03-.957.815-.026c.081.004.162.004.243 0zm.597-.727a.694.694 0 0 1-.176.256h-.001c-.175.137-.398.22-.641.22l-.041-.001h.002l-.806.026-.052-1.509.823-.03a1.052 1.052 0 0 1 .684.179l-.004-.002a.692.692 0 0 1 .256.538v.014-.001a.686.686 0 0 1-.045.312l.002-.005zm-2.753 1.617.065.272-2.088.487-.693-2.939 2.028-.47.061.267-1.733.401.247 1.043 1.525-.358.065.267-1.529.354.26 1.09 1.794-.413zm-5.421-1.12-.291.129 1.257 2.745 1.837-.832-.112-.25-1.547.698-1.144-2.491zM4.746 7.53l.26-.194 1.651 2.198 1.361-1.013.164.22-1.616 1.202-1.82-2.413zm-.724 4.121 1.01-1.34.867.181.203-.267-3.262-.699-.187.254 1.603 2.909.199-.267-.434-.772zM3.013 9.853l1.733.388-.867 1.159-.867-1.548zm-.364 2.871-.069.297.992.25c.105.261.123.55.052.823a1.358 1.358 0 0 1-.304.61l.001-.002c-.147.16-.334.281-.542.349a1.269 1.269 0 0 1-.671-.002l.009.002a1.218 1.218 0 0 1-.594-.315 1.17 1.17 0 0 1-.331-.539l-.002-.008a1.38 1.38 0 0 1-.011-.686l-.002.009c.065-.356.275-.654.566-.833l.005-.003-.156-.237c-.176.1-.322.235-.431.396l-.003.004c-.111.171-.196.37-.244.583l-.002.012a1.61 1.61 0 0 0 .003.873l-.003-.011c.07.259.213.494.412.676.202.19.452.321.723.379a1.563 1.563 0 0 0 .831-.033l-.011.003c.266-.085.492-.234.666-.429l.001-.001c.182-.205.312-.459.371-.739l.002-.011c.047-.201.06-.408.039-.612a1.44 1.44 0 0 0-.172-.559l.004.007-1.127-.254zm15.806-6.693-.156 1.03-.317-.048.16-1.013-.897-2.155.338.051.767 1.836 1.3-1.521.303.064-1.499 1.754zm4.662.306-.377-.487.594-.069V5.57l-.624.086.221-.577-.186-.077-.234.568-.334-.491-.168.129.381.487-.615.069v.207l.624-.082-.243.565.182.077.238-.564.377.5.164-.129zm1.069 2.986A1.18 1.18 0 0 1 24 8.807v-.005l.256-.112c.019.171.075.336.164.483.097.165.223.311.373.431.154.147.351.242.563.272a.474.474 0 0 0 .407-.168l.001-.001a.39.39 0 0 0 .101-.261l-.001-.034v.001a.794.794 0 0 0-.106-.301l.002.004a4.725 4.725 0 0 0-.272-.394l.008.01a3.861 3.861 0 0 1-.302-.455l-.01-.019a.844.844 0 0 1-.113-.404v-.001c0-.16.06-.314.169-.431a.79.79 0 0 1 .36-.246.874.874 0 0 1 .481 0c.202.066.389.171.55.31.133.11.251.238.351.379.092.131.161.277.204.431l-.247.13a1.527 1.527 0 0 0-.194-.411l.003.005a1.575 1.575 0 0 0-.287-.295l-.003-.003a.956.956 0 0 0-.554-.262h-.005a.461.461 0 0 0-.407.176l-.001.001a.368.368 0 0 0-.101.255l.002.04V7.93c.01.109.045.213.104.306.061.099.147.229.264.384.116.147.221.302.312.465a.864.864 0 0 1 .117.405v.001a.63.63 0 0 1-.169.43.778.778 0 0 1-.359.244l-.005.002a.838.838 0 0 1-.481 0 1.615 1.615 0 0 1-.557-.312l.002.002a1.989 1.989 0 0 1-.429-.525l-.005-.01zm3.748-.232.611.862-2.257 1.586.182.263 2.262-1.573.611.862.226-.16-1.408-2-.225.16zm-.359 4.404c.082-.269.232-.497.432-.671l.002-.001c.194-.173.434-.299.7-.356l.01-.002a1.584 1.584 0 0 1 .826.033l-.011-.003c.255.084.483.232.663.431.18.205.309.459.366.739l.002.01a1.666 1.666 0 0 1-.002.843l.003-.011a1.48 1.48 0 0 1-.432.671l-.002.001a1.603 1.603 0 0 1-1.558.333l.011.003a1.458 1.458 0 0 1-.661-.429l-.001-.002a1.613 1.613 0 0 1-.367-.735l-.002-.01a1.625 1.625 0 0 1 .025-.857l-.003.012zm.567 1.37a1.18 1.18 0 0 0 .915.402c.338 0 .648-.124.884-.33l-.002.001c.16-.147.278-.333.342-.539a1.38 1.38 0 0 0-.283-1.269l.002.002a1.238 1.238 0 0 0-.55-.347l-.009-.002a1.333 1.333 0 0 0-.677.002l.009-.002a1.194 1.194 0 0 0-.589.297 1.208 1.208 0 0 0-.34.535l-.002.008a1.283 1.283 0 0 0 0 .668c.047.213.15.411.299.573zm.226 3.202-1.122.431-.082.323 1.196-.431c.001.213.075.419.21.584s.322.28.531.325a.935.935 0 0 0 .826-.122l-.003.002c.252-.196.432-.473.501-.793l.002-.009.295-1.091-2.929-.78-.083.306.919.237-.212.78-.013.049.005-.019-.003.013c-.018.066-.036.131-.036.194zm.531.788a.77.77 0 0 1-.2-.233l-.002-.004a1.02 1.02 0 0 1-.011-.718l-.002.007.208-.776 1.469.392-.208.776c-.046.24-.177.455-.368.608a.78.78 0 0 1-.887-.053l.002.001zm-3.209 2.418-.221-.168 1.3-1.702 2.418 1.823-1.256 1.651-.221-.168 1.061-1.392-.866-.651-.949 1.245-.216-.164.971-1.245-.897-.677-1.123 1.448zm-1.633 3.47.619-.035-.316.521.181.104.286-.56.329.517.169-.107-.333-.513h.628v-.211l-.62.035.295-.543-.186-.099-.269.577-.329-.517-.169.108.333.513-.619.004v.207zm-5.013-.38.524.289c.179-.337.487-.585.857-.679l.009-.002a1.36 1.36 0 0 1 .539-.056h-.005a.876.876 0 0 1 .433.155.69.69 0 0 1 .243.345.76.76 0 0 1-.026.517c-.114.232-.259.43-.433.599.143.076.275.17.395.28a.76.76 0 0 1 .178.297.566.566 0 0 1-.113.505l.001-.001a.837.837 0 0 1-.48.331l-.006.001a.749.749 0 0 1-.543-.002l.005.002a.544.544 0 0 1-.311-.363l-.001-.004a.584.584 0 0 1 .031-.435l-.002.003a2.05 2.05 0 0 1 .385-.53l-1.044-.577a1.998 1.998 0 0 0-.025.625l-.001-.009h-.264a2.058 2.058 0 0 1 .091-.764l-.004.015-.546-.302.113-.241zm.753.431 1.148.634c.147-.14.27-.304.364-.485l.005-.01a.527.527 0 0 0-.001-.392l.001.004a.465.465 0 0 0-.3-.322l-.003-.001a.89.89 0 0 0-.561.002l.006-.002a1.045 1.045 0 0 0-.673.554l-.003.006.017.013zm1.63 1.724a.38.38 0 0 0 .034-.321l.001.003a.529.529 0 0 0-.139-.224 1.908 1.908 0 0 0-.349-.232l-.011-.005a2.26 2.26 0 0 0-.342.431.423.423 0 0 0-.034.322l-.001-.003a.361.361 0 0 0 .189.227l.002.001a.48.48 0 0 0 .342 0 .518.518 0 0 0 .291-.202l.017.004zm-7.604-1.849-.061 3.016.264.004 1.347-2.211 1.274 2.254h.264l.056-3.017h-.307l-.043 2.4-1.153-2.043h-.152l-1.23 2.008.048-2.414h-.307zm-1.568-.138a1.459 1.459 0 0 1 .391 1.501l.003-.01a1.533 1.533 0 0 1-.411.702 1.452 1.452 0 0 1-.688.377l-.01.002a1.667 1.667 0 0 1-.852-.029l.012.003a1.631 1.631 0 0 1-.729-.393l.001.001a1.45 1.45 0 0 1-.45-1.063c0-.445.184-.847.48-1.135.184-.183.415-.318.674-.386l.01-.002a1.665 1.665 0 0 1 .848.029l-.012-.003c.287.074.534.215.733.406l-.001-.001zm-1.478-.15c-.22.052-.41.161-.559.31a1.24 1.24 0 0 0-.329.573 1.261 1.261 0 0 0 .002.669l-.002-.009c.051.21.161.401.316.552.163.159.365.273.585.332a1.348 1.348 0 0 0 .681-.002l-.009.002c.221-.055.411-.163.563-.311a1.278 1.278 0 0 0 .327-1.245l.002.009a1.211 1.211 0 0 0-.321-.551 1.3 1.3 0 0 0-.58-.326l-.009-.002a1.25 1.25 0 0 0-.675.002l.009-.002zm-3.163-.819-.117-1.185-.307-.198.125 1.267a1.005 1.005 0 0 0-.631.049l.007-.002a.998.998 0 0 0-.452.426l-.003.005a.935.935 0 0 0-.093.825l-.002-.007c.128.299.358.544.65.69l.988.565 1.517-2.599-.282-.16-.476.836-.707-.405a1.916 1.916 0 0 0-.203-.103l-.013-.005zm-.891.31a.768.768 0 0 1 .281-.134v-.021c.25-.013.497.061.698.211l.697.401-.758 1.293-.698-.4a1.072 1.072 0 0 1-.496-.506l-.003-.007a.77.77 0 0 1 .276-.834l.002-.001zm-1.79-3.517.195-.194 1.495 1.53-2.166 2.103-1.443-1.483.199-.194 1.227 1.254.741-.745-1.075-1.112.208-.198 1.096 1.12.806-.78-1.283-1.301zm-3.116-2.288-.104.595-.468-.405-.143.155.481.401-.581.203.065.168.581-.207-.121.612.208.039.108-.612.464.431.139-.155-.481-.405.585-.198-.069-.19-.576.211.117-.612-.204-.03z"/>
    </symbol>
  <!-- Socials icon -->
    <symbol id="instagram" viewBox="0 0 32 32">
      <path d="M31.912 9.408c-.075-1.7-.35-2.869-.744-3.882a7.803 7.803 0 0 0-1.85-2.838A7.867 7.867 0 0 0 26.486.844C25.467.45 24.304.175 22.604.1 20.891.019 20.347 0 16.003 0s-4.888.019-6.595.094c-1.7.075-2.869.35-3.882.744a7.803 7.803 0 0 0-2.838 1.85A7.867 7.867 0 0 0 .844 5.52C.45 6.539.175 7.702.1 9.402c-.081 1.713-.1 2.257-.1 6.601s.019 4.888.094 6.595c.075 1.7.35 2.869.744 3.882a7.895 7.895 0 0 0 1.85 2.838 7.867 7.867 0 0 0 2.832 1.844c1.019.394 2.182.669 3.882.744 1.706.075 2.25.094 6.595.094s4.888-.019 6.595-.094c1.7-.075 2.869-.35 3.882-.744a8.184 8.184 0 0 0 4.682-4.682c.394-1.019.669-2.182.744-3.882.075-1.707.094-2.251.094-6.595s-.006-4.888-.081-6.595zm-2.881 13.065c-.069 1.563-.331 2.407-.55 2.969a5.31 5.31 0 0 1-3.038 3.038c-.563.219-1.413.481-2.969.55-1.688.075-2.194.094-6.464.094s-4.782-.019-6.464-.094c-1.563-.069-2.407-.331-2.969-.55a4.926 4.926 0 0 1-1.838-1.194 4.974 4.974 0 0 1-1.194-1.838c-.219-.563-.481-1.413-.55-2.969-.075-1.688-.094-2.194-.094-6.464s.019-4.782.094-6.464c.069-1.563.331-2.407.55-2.969a4.868 4.868 0 0 1 1.2-1.838A4.974 4.974 0 0 1 6.583 3.55c.563-.219 1.413-.481 2.969-.55 1.688-.075 2.194-.094 6.464-.094 4.276 0 4.782.019 6.464.094 1.563.069 2.407.331 2.969.55a4.914 4.914 0 0 1 1.838 1.194 4.974 4.974 0 0 1 1.194 1.838c.219.563.481 1.413.55 2.969.075 1.688.094 2.194.094 6.464s-.019 4.77-.094 6.458z"/>
      <path d="M16.22 8C11.682 8 8 11.682 8 16.22s3.682 8.22 8.22 8.22c4.539 0 8.22-3.682 8.22-8.22S20.758 8 16.22 8zm0 13.553a5.333 5.333 0 0 1 0-10.664 5.333 5.333 0 0 1 0 10.664zM26.524 7.458a1.919 1.919 0 1 1-3.838 0 1.919 1.919 0 0 1 3.838 0z"/>
    </symbol>
    <symbol id="twitter" viewBox="0 0 32 32">
      <path d="M32 6.078c-1.19.522-2.458.868-3.78 1.036a6.523 6.523 0 0 0 2.886-3.626 13.11 13.11 0 0 1-4.16 1.588A6.574 6.574 0 0 0 22.154 3c-3.632 0-6.556 2.948-6.556 6.562 0 .52.044 1.02.152 1.496-5.454-.266-10.28-2.88-13.522-6.862a6.605 6.605 0 0 0-.898 3.316 6.57 6.57 0 0 0 2.914 5.452 6.479 6.479 0 0 1-2.964-.808v.072c0 3.188 2.274 5.836 5.256 6.446a6.548 6.548 0 0 1-1.72.216 5.8 5.8 0 0 1-1.242-.112c.85 2.598 3.262 4.508 6.13 4.57a13.182 13.182 0 0 1-8.134 2.798c-.538 0-1.054-.024-1.57-.09A18.469 18.469 0 0 0 10.064 29c12.072 0 18.672-10 18.672-18.668 0-.29-.01-.57-.024-.848A13.087 13.087 0 0 0 32 6.078z"/>
    </symbol>
    <symbol id="facebook" viewBox="0 0 32 32">
      <path d="M21.33 5.313h2.921V.225C23.747.156 22.014 0 19.995 0c-4.212 0-7.097 2.649-7.097 7.519V12H8.25v5.688h4.648V32h5.699V17.689h4.46l.708-5.688h-5.169V8.082c.001-1.644.444-2.769 2.735-2.769z"/>
    </symbol>
    <symbol id="linkedin" viewBox="0 0 32 32">
      <path d="M31.992 32v-.001H32V20.263c0-5.741-1.236-10.164-7.948-10.164-3.227 0-5.392 1.771-6.276 3.449h-.093v-2.913h-6.364v21.364h6.627V21.42c0-2.785.528-5.479 3.977-5.479 3.399 0 3.449 3.179 3.449 5.657v10.401h6.62zM.528 10.636h6.635V32H.528V10.636zM3.843 0C1.722 0 0 1.721 0 3.843s1.721 3.879 3.843 3.879c2.121 0 3.843-1.757 3.843-3.879A3.846 3.846 0 0 0 3.843 0z"/>
    </symbol>
    <!-- Contact icon -->
    <symbol id="map-pin" viewBox="0 0 32 32">
      <path fill="none" stroke="#9da4bd" stroke-linecap="round" stroke-linejoin="round" stroke-width="1.333" d="M26.667 13.818C26.667 21.454 16 28 16 28S5.333 21.455 5.333 13.818C5.333 8.396 10.109 4 16 4s10.667 4.396 10.667 9.818v0z" style="stroke:var(--color1, #9da4bd)"/>
      <path fill="none" stroke="#9da4bd" stroke-linecap="round" stroke-linejoin="round" stroke-width="1.333" d="M16 18.667a4 4 0 1 0 0-8 4 4 0 0 0 0 8z" style="stroke:var(--color1, #9da4bd)"/>
    </symbol>
    <symbol id="phone" viewBox="0 0 32 32">
      <path fill="none" stroke="#9da4bd" stroke-linecap="round" stroke-linejoin="round" stroke-width="1.333" d="M26.666 21.337v3.218a2.146 2.146 0 0 1-2.338 2.145 21.239 21.239 0 0 1-9.257-3.293 20.914 20.914 0 0 1-6.436-6.436 21.221 21.221 0 0 1-3.293-9.3 2.144 2.144 0 0 1 2.134-2.338h3.218a2.144 2.144 0 0 1 2.145 1.845c.136 1.03.388 2.041.751 3.014a2.144 2.144 0 0 1-.483 2.263l-1.362 1.362a17.162 17.162 0 0 0 6.436 6.436l1.362-1.362a2.146 2.146 0 0 1 2.263-.483c.973.363 1.984.615 3.014.751a2.144 2.144 0 0 1 1.845 2.177z" style="stroke:var(--color1, #9da4bd)"/>
    </symbol>
    <symbol id="mail" viewBox="0 0 32 32">
      <path fill="none" stroke="#9da4bd" stroke-linecap="round" stroke-linejoin="round" stroke-width="1.333" d="M6.4 6.667h19.2c1.32 0 2.4 1.05 2.4 2.333v14c0 1.283-1.08 2.333-2.4 2.333H6.4C5.08 25.333 4 24.283 4 23V9c0-1.283 1.08-2.333 2.4-2.333z" style="stroke:var(--color1, #9da4bd)"/>
      <path fill="none" stroke="#9da4bd" stroke-linecap="round" stroke-linejoin="round" stroke-width="1.333" d="m26.667 9.333-10.667 8-10.667-8" style="stroke:var(--color1, #9da4bd)"/>
    </symbol>
  </defs>
</svg>